<svg xmlns="http://www.w3.org/2000/svg" xmlns:xlink="http://www.w3.org/1999/xlink" width="392.999" height="296.266" viewBox="0 0 392.999 296.266">
  <defs>
    <radialGradient id="radial-gradient" cx="0.02" cy="0.082" r="1.495" gradientTransform="matrix(0.731, 0.175, -0.076, 0.572, 0.012, 0.032)" gradientUnits="objectBoundingBox">
      <stop offset="0" stop-color="#ed6e74"/>
      <stop offset="1" stop-color="#f7a1a5"/>
    </radialGradient>
    <filter id="Subtraction_1" x="0" y="0" width="392.999" height="296.266" filterUnits="userSpaceOnUse">
      <feOffset dy="3" input="SourceAlpha"/>
      <feGaussianBlur stdDeviation="3" result="blur"/>
      <feFlood flood-opacity="0.161"/>
      <feComposite operator="in" in2="blur"/>
      <feComposite in="SourceGraphic"/>
    </filter>
  </defs>
  <g transform="matrix(1, 0, 0, 1, 0, 0)" filter="url(#Subtraction_1)">
    <path id="Subtraction_1-2" data-name="Subtraction 1" d="M731.5,452a188.888,188.888,0,0,1-37.788-3.809,186.473,186.473,0,0,1-67.045-28.213,188.046,188.046,0,0,1-67.932-82.494,186.566,186.566,0,0,1-10.925-35.2A188.892,188.892,0,0,1,544,264.5c0-.419.006-.825.019-1.241H544V173.733H919v89.526h-.018c.013.408.018.814.018,1.241a188.894,188.894,0,0,1-3.809,37.788,186.474,186.474,0,0,1-28.213,67.045,188.047,188.047,0,0,1-82.494,67.932,186.553,186.553,0,0,1-35.2,10.925A188.889,188.889,0,0,1,731.5,452Z" transform="translate(-535 -167.73)" fill="url(#radial-gradient)"/>
  </g>
</svg>
