<svg xmlns="http://www.w3.org/2000/svg" xmlns:xlink="http://www.w3.org/1999/xlink" width="61.188" height="61.188" viewBox="0 0 61.188 61.188">
  <defs>
    <linearGradient id="linear-gradient" x1="0.629" y1="0.118" gradientUnits="objectBoundingBox">
      <stop offset="0" stop-color="#68c8c7"/>
      <stop offset="1" stop-color="#99e5cb"/>
    </linearGradient>
    <filter id="bg" x="0" y="0" width="61.188" height="61.188" filterUnits="userSpaceOnUse">
      <feOffset dy="3" input="SourceAlpha"/>
      <feGaussianBlur stdDeviation="3" result="blur"/>
      <feFlood flood-opacity="0.161"/>
      <feComposite operator="in" in2="blur"/>
      <feComposite in="SourceGraphic"/>
    </filter>
  </defs>
  <g id="button-add" transform="translate(9 6)">
    <g transform="matrix(1, 0, 0, 1, -9, -6)" filter="url(#bg)">
      <circle id="bg-2" data-name="bg" cx="21.594" cy="21.594" r="21.594" transform="translate(9 6)" fill="url(#linear-gradient)"/>
    </g>
    <path id="ic-add" d="M6.683,14.139V9.255h-5.4a1.286,1.286,0,0,1,0-2.571h5.4v-5.4a1.286,1.286,0,0,1,2.571,0v5.4h4.884a1.286,1.286,0,0,1,0,2.571H9.255v4.884a1.286,1.286,0,0,1-2.571,0Z" transform="translate(13.882 13.882)" fill="#f5f5f5"/>
  </g>
</svg>
