<svg xmlns="http://www.w3.org/2000/svg" width="25.491" height="25.26" viewBox="0 0 25.491 25.26">
  <g id="Groupe_6892" data-name="Groupe 6892" transform="translate(0 -2.761)">
    <path id="Tracé_1075" data-name="Tracé 1075" d="M20.973,23.65H8.23V37.337H26.165V23.65H20.973Zm-8.5,12.743h-3.3v-3.3h3.3Zm0-4.248h-3.3v-3.3h3.3Zm0-4.248h-3.3v-3.3h3.3Zm4.248,8.5h-3.3v-3.3h3.3Zm0-4.248h-3.3v-3.3h3.3Zm0-4.248h-3.3v-3.3h3.3Zm4.248,8.5h-3.3v-3.3h3.3Zm0-4.248h-3.3v-3.3h3.3Zm0-4.248h-3.3v-3.3h3.3Zm4.248,8.5h-3.3v-3.3h3.3Zm0-4.248h-3.3v-3.3h3.3Zm0-4.248h-3.3v-3.3h3.3Z" transform="translate(-4.346 -12.488)" fill="#f38e93"/>
    <g id="Groupe_5349" data-name="Groupe 5349" transform="translate(0 2.761)">
      <rect id="Rectangle_850" data-name="Rectangle 850" width="10.209" height="0.944" transform="translate(7.75)" fill="#f38e93"/>
      <path id="Tracé_1076" data-name="Tracé 1076" d="M22.811,5.85h-.519v.944h.519a1.736,1.736,0,0,1,1.732,1.732v1.812H.944V8.526A1.736,1.736,0,0,1,2.676,6.794h.736V5.85H2.676A2.683,2.683,0,0,0,0,8.526v1.812H0v.944H0V28.434A2.683,2.683,0,0,0,2.676,31.11H22.815a2.683,2.683,0,0,0,2.676-2.676V8.526A2.69,2.69,0,0,0,22.811,5.85Zm1.732,22.584a1.736,1.736,0,0,1-1.732,1.732H2.676A1.733,1.733,0,0,1,.944,28.434V11.282h23.6Z" transform="translate(0 -5.85)" fill="#f38e93"/>
    </g>
  </g>
</svg>
