<svg xmlns="http://www.w3.org/2000/svg" width="33.606" height="23" viewBox="0 0 33.606 23">
  <g id="Groupe_6366" data-name="Groupe 6366" transform="translate(-241.464 -630.917)">
    <path id="Tracé_1073" data-name="Tracé 1073" d="M17.43,0H2.277A2.28,2.28,0,0,0,0,2.277v9.237a2.279,2.279,0,0,0,2.277,2.277h.683v2.336a.354.354,0,0,0,.219.327.353.353,0,0,0,.386-.077l2.587-2.587H17.429a2.281,2.281,0,0,0,2.278-2.277V2.277A2.28,2.28,0,0,0,17.43,0Zm1.518,11.514a1.52,1.52,0,0,1-1.518,1.518H5.91l-.219.219h0L3.67,15.272V13.792h0v-.759H2.277A1.52,1.52,0,0,1,.759,11.514V2.277A1.52,1.52,0,0,1,2.277.759H17.429a1.52,1.52,0,0,1,1.518,1.518Z" transform="translate(241.714 637.185)" fill="#68c8c7" stroke="#68c8c7" stroke-width="0.5"/>
    <path id="Tracé_1074" data-name="Tracé 1074" d="M2.23,0H17.065a2.232,2.232,0,0,1,2.23,2.23v9.043a2.232,2.232,0,0,1-2.23,2.23H16.4v2.288a.347.347,0,0,1-.214.32.345.345,0,0,1-.378-.075L13.272,13.5H2.23A2.233,2.233,0,0,1,0,11.273V2.23A2.232,2.232,0,0,1,2.23,0ZM.744,11.273A1.488,1.488,0,0,0,2.23,12.76H13.509l.215.214h0L15.7,14.953V13.5h0V12.76h1.363a1.488,1.488,0,0,0,1.487-1.487V2.23A1.488,1.488,0,0,0,17.065.743H2.23A1.488,1.488,0,0,0,.744,2.23Z" transform="translate(255.526 631.167)" fill="#68c8c7" stroke="#68c8c7" stroke-width="0.5"/>
  </g>
</svg>
