<svg id="mail" xmlns="http://www.w3.org/2000/svg" width="23.575" height="16.76" viewBox="0 0 23.575 16.76">
  <g id="Groupe_6399" data-name="Groupe 6399" transform="translate(4.106 8.08)">
    <path id="Tracé_1858" data-name="Tracé 1858" d="M23.609,19.975a.376.376,0,0,1-.26-.1l-4.374-4.1a.38.38,0,1,1,.521-.553l4.374,4.1a.38.38,0,0,1-.261.657Z" transform="translate(-8.628 -15.111)" fill="#acacac"/>
    <path id="Tracé_1859" data-name="Tracé 1859" d="M5.782,19.976a.38.38,0,0,1-.261-.657l4.376-4.1a.38.38,0,1,1,.521.553l-4.376,4.1A.376.376,0,0,1,5.782,19.976Z" transform="translate(-5.402 -15.112)" fill="#acacac"/>
  </g>
  <path id="Tracé_1860" data-name="Tracé 1860" d="M21.674,21.242H1.9a1.9,1.9,0,0,1-1.9-1.9V6.382a1.9,1.9,0,0,1,1.9-1.9H21.674a1.9,1.9,0,0,1,1.9,1.9V19.341A1.9,1.9,0,0,1,21.674,21.242ZM1.9,5.242A1.142,1.142,0,0,0,.76,6.382V19.341a1.142,1.142,0,0,0,1.14,1.14H21.674a1.142,1.142,0,0,0,1.14-1.14V6.382a1.142,1.142,0,0,0-1.14-1.14Z" transform="translate(0 -4.482)" fill="#acacac"/>
  <path id="Tracé_1861" data-name="Tracé 1861" d="M11.945,14.963a2.126,2.126,0,0,1-1.4-.5L.789,5.945a.38.38,0,1,1,.5-.573l9.761,8.514a1.422,1.422,0,0,0,1.792,0l9.749-8.5a.38.38,0,1,1,.5.573l-9.749,8.5A2.124,2.124,0,0,1,11.945,14.963Z" transform="translate(-0.158 -4.673)" fill="#acacac"/>
</svg>
